<svg xmlns="http://www.w3.org/2000/svg" xmlns:xlink="http://www.w3.org/1999/xlink" width="128" height="128"><defs><clipPath id="b"><use xlink:href="#a"/></clipPath></defs><path fill="#424242" d="m119.5 76.7-4.1-7 10.8-1.4zm-92-31.2c-.8 0-1.6-.4-2.1-1-9.8-14.4-20-10-20-9.9-1.3.6-2.8 0-3.4-1.2a2.5 2.5 0 0 1 1.3-3.3c.1 0 14.1-6.3 26.2 11.5a2.5 2.5 0 0 1-2 4zM43 39.7c-1.3 0-2.4-1-2.5-2.2-2.2-17-12.7-17.2-13.1-17.2a2.5 2.5 0 0 1-2.5-2.6c0-1.3 1-2.4 2.5-2.4.2 0 15.3.2 18 21.6.2 1.4-.7 2.6-2.1 2.8H43z"/><path fill="#bdbdbd" d="M60.6 15.9c3.6-3.2 8.6-4.2 13.4-2.6 2 .6 3.8 1.6 5.3 3C92 27.3 85.2 47.6 79 64c0 .1-2.8 8.5-5.8 9.2-2.4.5-5.2-3.1-5.2-3.1l-3.5-4.5a67 67 0 0 1-10.6-25.9 31.1 31.1 0 0 1 .2-12.1c1-4.2 2.8-8.2 6.2-11.4z"/><path fill="#eceff1" d="M99 18.1a15 15 0 0 1 13.9 6.2c1.4 2 2.4 4 3 6.2 4.4 18.1-15 32.4-31.2 43.4 0 0-8 5.9-11.1 4.6-2.6-1.1-2.8-6.2-2.8-6.2l-.3-6.4a74.6 74.6 0 0 1 7-30.3 34 34 0 0 1 8-11 25 25 0 0 1 13-6.4z"/><ellipse id="a" cx="97.7" cy="83.3" fill="#fcc21b" rx="23.4" ry="18.8" transform="rotate(-25.2 97.7 83.3)"/><g clip-path="url(#b)"><ellipse cx="52.3" cy="116.7" fill="#424242" rx="18.8" ry="23.4" transform="rotate(-25.2)"/><ellipse cx="43.2" cy="116" fill="#fcc21b" rx="18.8" ry="23.4" transform="rotate(-25.2)"/><ellipse cx="32" cy="116.5" fill="#424242" rx="18.8" ry="23.4" transform="rotate(-25.2)"/><ellipse cx="21.5" cy="115.9" fill="#fcc21b" rx="18.8" ry="23.4" transform="rotate(-25.2)"/></g><path fill="#424242" d="M42.4 98c-2.5 0-4-.3-4.2-.4a2.5 2.5 0 0 1-2-2.9 2.5 2.5 0 0 1 3-2c.1 0 9.9 1.8 19.9-5a2.5 2.5 0 1 1 2.8 4.2c-7.6 5.1-15 6-19.5 6z"/><path fill="#424242" d="M46.5 108.3a2.5 2.5 0 0 1-.4-5c.1 0 9.8-2 16.7-11.9a2.5 2.5 0 0 1 3.5-.6c1.1.8 1.4 2.3.6 3.5a33.6 33.6 0 0 1-20.4 14z"/><path fill="#424242" d="M69 115.5a2.5 2.5 0 0 1-2.5-3.1c0-.2 2.3-9.6-.4-21.3a2.5 2.5 0 0 1 1.9-3 2.5 2.5 0 0 1 3 1.9c3 12.9.5 23.1.4 23.6a2.5 2.5 0 0 1-2.5 1.9zm9.2-.1H78a2.5 2.5 0 0 1-2.1-2.9s1.3-9.7-2.5-21a2.5 2.5 0 0 1 4.7-1.7c4.2 12.6 2.8 23 2.7 23.4a2.5 2.5 0 0 1-2.5 2.2z"/><path fill="#ffb300" d="M83.8 73.3c-.5-.7.7-3 0-3.7-.7-.6-2.9.8-3.6.4-.8-.5-.6-3-1.5-3.4-.8-.3-2.3 1.8-3.2 1.7-1-.2-1.7-2.7-2.6-2.7-.9 0-1.6 2.5-2.5 2.7-.9.1-2.4-2-3.3-1.7-.8.3-.7 2.9-1.5 3.3-.8.4-2.9-1.1-3.6-.6-.8.6.1 3-.5 3.7-.7.6-3.1-.3-3.7.5-.5.7 1 2.8.7 3.6-.5.8-3 .7-3.3 1.6-.3.9 1.9 2.3 1.7 3.2 0 1-2.6 1.7-2.5 2.6 0 1 2.6 1.5 2.8 2.4.2.9-1.8 2.5-1.4 3.4.4.8 3 .4 3.5 1.1.5.8-.7 3 0 3.7.7.6 2.9-.8 3.7-.4.7.5.5 3.1 1.4 3.4.9.3 2.4-1.8 3.3-1.6.9.1 1.6 2.6 2.5 2.6 1 0 1.6-2.5 2.5-2.7 1-.1 2.4 2 3.3 1.7.8-.3.7-2.9 1.5-3.3.8-.4 3 1.2 3.7.6.7-.6-.2-3 .5-3.6.6-.7 3 .2 3.6-.5.6-.8-1-2.8-.6-3.6.4-.9 3-.8 3.3-1.7.2-.8-2-2.3-1.8-3.2.1-.9 2.6-1.7 2.5-2.6 0-1-2.5-1.5-2.8-2.4-.2-.9 1.8-2.5 1.4-3.4-.3-.8-2.9-.3-3.5-1z"/><ellipse cx="43.1" cy="62.9" fill="#fcc21b" rx="30.2" ry="27.4" transform="rotate(-14.9 43 63)"/><path fill="#424242" d="M45.4 81c-2.9 0-5.2-1-5.6-1.2a2.5 2.5 0 0 1-1.2-3.3 2.5 2.5 0 0 1 3.3-1.2c.1 0 3.1 1.4 5.6.3 1.4-.5 2.4-1.7 3.1-3.5a2.5 2.5 0 0 1 3.2-1.4c1.3.5 2 1.9 1.5 3.2a10.6 10.6 0 0 1-6 6.4c-1.3.5-2.6.7-4 .7zm8.4-25.2c.7-.3 1.4-.3 2.1-.2a5 5 0 0 1 3 1.8 7 7 0 0 1 1.2 2l.4 2c0 1.3-.3 2.5-1 3.4-.4.8-1 1.4-1.9 1.7-2.4.9-5.2-.8-6.3-3.7-1-3 .1-6 2.5-7zM33.2 73.6c-2.6.3-5.1-1.8-5.6-5-.6-3 1.1-5.8 3.7-6.2 2.5-.4 5 1.8 5.5 4.9.6 3-1 5.9-3.6 6.3z"/></svg>