<svg xmlns="http://www.w3.org/2000/svg" xmlns:xlink="http://www.w3.org/1999/xlink" width="64.6" height="13.44"><defs><clipPath id="b"><use xlink:href="#a" width="100%" height="100%"/></clipPath></defs><g aria-label="GAZATU.XYZ" style="line-height:1.25" font-weight="400" font-size="14.67" font-family="Consolas" letter-spacing="-2" word-spacing="0" font-style="italic" fill="#8a2be2"><path d="M8.55 3.64q-.22-.13-.46-.24-.23-.11-.49-.19-.25-.07-.53-.11-.28-.04-.6-.04-.72 0-1.31.23-.59.22-1.04.6-.45.38-.78.9-.33.5-.54 1.06-.22.56-.32 1.14-.1.58-.1 1.1 0 .55.14.98.13.43.42.73.29.29.73.45.45.15 1.07.15l.31-.01.35-.04q.18-.02.33-.06l.29-.08.6-2.98h-1.9l.2-1.05h3.17l-.95 4.78q-.65.28-1.34.43-.69.14-1.32.14-.8 0-1.44-.2-.64-.22-1.08-.63-.44-.42-.67-1.05-.24-.63-.24-1.48 0-.75.15-1.51.16-.76.46-1.45.32-.7.78-1.3.46-.6 1.07-1.05.61-.44 1.36-.7.76-.25 1.66-.25.63 0 1.21.12.6.1 1.06.35z" style="line-height:0;-inkscape-font-specification:'Consolas Italic'"/><path d="M13.87 11.4h-1.35l-.23-2.04H8.4L7.3 11.4H5.95l4.99-9.36h1.74zm-1.73-3.18-.57-5-2.6 5Z" style="line-height:0;-inkscape-font-specification:'Consolas Italic'"/><path d="m20.8 3.04-6.18 7.17h4.83l-.24 1.19h-6.46l.19-.95 6.22-7.25h-4.64l.24-1.16H21z" style="line-height:0;-inkscape-font-specification:'Consolas Italic'"/><path d="M26.03 11.4h-1.35l-.23-2.04h-3.9l-1.08 2.04h-1.36l4.98-9.36h1.75zM24.3 8.22l-.58-5-2.59 5Zm8.92-5.09h-2.77l-1.66 8.27H27.5l1.66-8.27h-2.77l.22-1.09h6.83z" style="line-height:0;-inkscape-font-specification:'Consolas Italic'"/><path d="M38.13 8.14q-.16.77-.49 1.4-.32.63-.81 1.07-.5.44-1.14.68-.64.24-1.44.24-.87 0-1.45-.23-.57-.23-.9-.64-.31-.43-.39-1.01-.07-.6.07-1.32l1.26-6.29h1.28l-1.25 6.2q-.1.55-.1.96.02.42.2.7.17.28.51.42.34.14.89.14 1.02 0 1.63-.59.62-.58.83-1.65l1.25-6.18h1.28zm2.36 1q.26 0 .47.1.21.09.36.25t.23.37q.09.2.09.44 0 .25-.1.48-.1.23-.28.4-.16.16-.4.26-.21.09-.46.09t-.45-.1q-.21-.09-.37-.24-.15-.16-.24-.36-.08-.21-.08-.44 0-.26.1-.5.1-.22.27-.39.17-.16.4-.26.22-.1.46-.1zm9.74 2.26h-1.55l-1.51-3.78-3.05 3.78h-1.64l4.06-4.78-1.93-4.58h1.45l1.43 3.52 2.87-3.52h1.52L48.1 6.56Z" style="line-height:0;-inkscape-font-specification:'Consolas Italic'"/><path d="m58.37 2.04-4.6 6.02-.67 3.34h-1.28l.67-3.37-2.19-5.99h1.49l1.16 3.42.42 1.38.88-1.25 2.6-3.55z" style="line-height:0;-inkscape-font-specification:'Consolas Italic'"/><path d="m63.35 3.04-6.18 7.17H62l-.24 1.19H55.3l.2-.95 6.2-7.25h-4.63l.24-1.16h6.24z" style="line-height:0;-inkscape-font-specification:'Consolas Italic'"/></g><g transform="translate(33.22 1.74) scale(.1014)"><path d="m119.47 76.7-4.11-7.02 10.82-1.38zm-92-31.19a2.5 2.5 0 0 1-2.07-1.09c-9.77-14.35-19.93-9.85-20.03-9.8a2.5 2.5 0 0 1-3.32-1.21 2.5 2.5 0 0 1 1.21-3.32c.14-.06 14.14-6.3 26.27 11.52a2.5 2.5 0 0 1-2.06 3.9zm15.6-5.8a2.5 2.5 0 0 1-2.48-2.19c-2.15-16.94-12.68-17.26-13.13-17.27a2.51 2.51 0 0 1-2.48-2.51c0-1.37 1.1-2.48 2.47-2.49.25 0 15.37.21 18.1 21.63a2.5 2.5 0 0 1-2.17 2.8c-.1.03-.2.03-.31.03z" fill="#424242"/><path d="M60.65 15.9A13.39 13.39 0 0 1 74 13.27a15.4 15.4 0 0 1 5.34 2.98C91.98 27.24 85.16 47.7 79 64.13c-.04.1-2.81 8.47-5.79 9.12-2.43.53-5.25-3.09-5.25-3.09-.13-.12-3.13-3.98-3.46-4.5a66.95 66.95 0 0 1-10.64-25.84 31.14 31.14 0 0 1 .21-12.13 22.56 22.56 0 0 1 6.19-11.43z" fill="#bdbdbd"/><path d="M99.01 18.13a14.94 14.94 0 0 1 13.86 6.19 17.28 17.28 0 0 1 2.95 6.15c4.46 18.13-14.91 32.4-31.09 43.41-.1.07-8 5.92-11.14 4.59-2.55-1.08-2.8-6.2-2.8-6.2-.04-.19-.29-5.64-.26-6.32a74.59 74.59 0 0 1 6.91-30.38 34.08 34.08 0 0 1 5.91-8.84 31.4 31.4 0 0 1 2.08-2.08 25.17 25.17 0 0 1 12.99-6.44z" fill="#eceff1"/><ellipse id="a" cx="97.66" cy="83.32" rx="23.42" ry="18.78" transform="rotate(-25.16 97.65 83.32)" fill="#fcc21b"/><g clip-path="url(#b)"><ellipse cx="52.29" cy="116.73" rx="18.78" ry="23.42" transform="rotate(-25.16)" fill="#424242"/><ellipse cx="43.18" cy="116.04" rx="18.78" ry="23.42" transform="rotate(-25.16)" fill="#fcc21b"/><ellipse cx="31.97" cy="116.48" rx="18.78" ry="23.42" transform="rotate(-25.16)" fill="#424242"/><ellipse cx="21.51" cy="115.9" rx="18.78" ry="23.42" transform="rotate(-25.16)" fill="#fcc21b"/></g><path d="M42.4 97.96c-2.46 0-4-.29-4.17-.32a2.5 2.5 0 0 1-1.97-2.94 2.5 2.5 0 0 1 2.93-1.97c.16.03 9.9 1.74 19.9-4.99a2.5 2.5 0 1 1 2.79 4.15 34.9 34.9 0 0 1-19.48 6.07z" fill="#424242"/><path d="M46.54 108.26a2.5 2.5 0 0 1-.45-4.96c.16-.03 9.85-1.98 16.72-11.87a2.5 2.5 0 0 1 3.48-.63 2.5 2.5 0 0 1 .63 3.48c-8.12 11.7-19.46 13.86-19.94 13.94-.14.03-.29.04-.44.04z" fill="#424242"/><path d="M68.95 115.47a2.5 2.5 0 0 1-2.43-3.09c.03-.14 2.25-9.61-.42-21.26a2.5 2.5 0 0 1 1.88-3 2.5 2.5 0 0 1 3 1.88c2.96 12.89.51 23.14.41 23.57a2.53 2.53 0 0 1-2.44 1.9zm9.29-.07-.36-.03a2.5 2.5 0 0 1-2.12-2.83c.02-.12 1.3-9.77-2.51-21.12A2.5 2.5 0 0 1 78 89.83c4.21 12.54 2.78 22.98 2.72 23.41a2.52 2.52 0 0 1-2.48 2.16z" fill="#424242"/><path d="M83.85 73.31c-.55-.75.63-3.06-.03-3.67-.68-.62-2.87.79-3.65.33-.79-.47-.58-3.06-1.44-3.37-.86-.31-2.36 1.81-3.27 1.66-.9-.15-1.62-2.65-2.54-2.65-.91 0-1.61 2.51-2.52 2.67-.89.15-2.38-1.98-3.26-1.68-.85.29-.73 2.89-1.56 3.33-.8.42-2.87-1.16-3.62-.61-.75.55.14 3-.49 3.64-.66.66-3.11-.23-3.64.5-.55.75 1.05 2.81.64 3.61-.42.83-3.02.75-3.3 1.62-.28.88 1.9 2.31 1.78 3.21-.12.91-2.6 1.72-2.56 2.63.04.92 2.58 1.48 2.79 2.37.21.89-1.78 2.55-1.39 3.39.38.82 2.94.37 3.49 1.12.55.75-.63 3.06.03 3.67.68.62 2.87-.79 3.65-.33.79.47.58 3.06 1.44 3.37.86.31 2.36-1.81 3.27-1.66.9.15 1.62 2.65 2.54 2.65.91 0 1.61-2.51 2.52-2.67.89-.15 2.38 1.98 3.26 1.68.85-.29.73-2.89 1.56-3.33.8-.42 2.87 1.16 3.62.61.75-.55-.14-3 .49-3.64.66-.66 3.11.23 3.64-.5.55-.75-1.05-2.81-.64-3.61.42-.83 3.02-.75 3.3-1.62.28-.88-1.9-2.31-1.78-3.21.12-.91 2.6-1.72 2.56-2.63-.04-.92-2.58-1.48-2.79-2.37-.21-.89 1.78-2.55 1.39-3.39-.38-.83-2.94-.37-3.49-1.12z" fill="#ffb300"/><ellipse cx="43.08" cy="62.91" rx="30.2" ry="27.45" transform="rotate(-14.87 43.08 62.91)" fill="#fcc21b"/><path d="M45.39 81.01c-2.89 0-5.22-1.03-5.57-1.19a2.5 2.5 0 0 1-1.21-3.32 2.49 2.49 0 0 1 3.31-1.21c.08.03 3.11 1.36 5.62.34 1.35-.55 2.35-1.71 3.06-3.55a2.5 2.5 0 0 1 3.24-1.43 2.5 2.5 0 0 1 1.43 3.24c-1.23 3.16-3.21 5.31-5.88 6.39a11.1 11.1 0 0 1-4 .73zm8.42-25.22c.7-.27 1.42-.3 2.13-.17 1.08.2 2.12.81 2.94 1.75.5.59.93 1.29 1.23 2.09.23.66.34 1.32.37 1.97a5.62 5.62 0 0 1-.89 3.4 4.16 4.16 0 0 1-1.97 1.64c-2.41.9-5.22-.73-6.28-3.68-1.06-2.93.06-6.08 2.47-7zM33.17 73.56c-2.55.37-5.07-1.81-5.6-4.91-.52-3.07 1.13-5.9 3.7-6.27 2.55-.39 5.07 1.81 5.58 4.9.53 3.08-1.13 5.88-3.68 6.28z" fill="#424242"/></g></svg>