<?xml version="1.0" encoding="UTF-8" standalone="no"?>
<!-- Created with Inkscape (http://www.inkscape.org/) -->

<svg
   xmlns:dc="http://purl.org/dc/elements/1.1/"
   xmlns:cc="http://creativecommons.org/ns#"
   xmlns:rdf="http://www.w3.org/1999/02/22-rdf-syntax-ns#"
   xmlns:svg="http://www.w3.org/2000/svg"
   xmlns="http://www.w3.org/2000/svg"
   xmlns:xlink="http://www.w3.org/1999/xlink"
   xmlns:sodipodi="http://sodipodi.sourceforge.net/DTD/sodipodi-0.dtd"
   xmlns:inkscape="http://www.inkscape.org/namespaces/inkscape"
   version="1.1"
   id="svg3735"
   width="64.599998"
   height="13.44"
   viewBox="0 0 64.599998 13.44"
   sodipodi:docname="gazatu-xyz4.svg"
   inkscape:version="0.92.3 (2405546, 2018-03-11)">
  <metadata
     id="metadata3741">
    <rdf:RDF>
      <cc:Work
         rdf:about="">
        <dc:format>image/svg+xml</dc:format>
        <dc:type
           rdf:resource="http://purl.org/dc/dcmitype/StillImage" />
        <dc:title></dc:title>
      </cc:Work>
    </rdf:RDF>
  </metadata>
  <defs
     id="defs3739">
    <clipPath
       id="c">
      <use
         id="use4839"
         xlink:href="#e"
         x="0"
         y="0"
         width="100%"
         height="100%" />
    </clipPath>
  </defs>
  <sodipodi:namedview
     pagecolor="#ffffff"
     bordercolor="#666666"
     borderopacity="1"
     objecttolerance="10"
     gridtolerance="10"
     guidetolerance="10"
     inkscape:pageopacity="0"
     inkscape:pageshadow="2"
     inkscape:window-width="1496"
     inkscape:window-height="946"
     id="namedview3737"
     showgrid="false"
     inkscape:zoom="11.313708"
     inkscape:cx="39.110219"
     inkscape:cy="15.810891"
     inkscape:window-x="0"
     inkscape:window-y="0"
     inkscape:window-maximized="0"
     inkscape:current-layer="svg3735" />
  <text
     xml:space="preserve"
     style="font-style:normal;font-weight:normal;font-size:40px;line-height:1.25;font-family:sans-serif;letter-spacing:0px;word-spacing:0px;fill:#000000;fill-opacity:1;stroke:none"
     x="6.375"
     y="7.8149996"
     id="text3747"><tspan
       sodipodi:role="line"
       id="tspan3745"
       x="6.375"
       y="43.205624" /></text>
  <text
     xml:space="preserve"
     style="font-style:normal;font-weight:normal;font-size:14.66666698px;line-height:1.25;font-family:sans-serif;letter-spacing:0px;word-spacing:0px;fill:#000000;fill-opacity:1;stroke:none"
     x="1.875"
     y="22.565001"
     id="text3751"><tspan
       sodipodi:role="line"
       id="tspan3749"
       x="1.875"
       y="35.541565" /></text>
  <text
     xml:space="preserve"
     style="font-style:normal;font-weight:normal;font-size:16px;line-height:1.25;font-family:sans-serif;letter-spacing:0px;word-spacing:0px;fill:#000000;fill-opacity:1;stroke:none"
     x="3.25"
     y="6.5649996"
     id="text3755"><tspan
       sodipodi:role="line"
       id="tspan3753"
       x="3.25"
       y="20.721249" /></text>
  <g
     id="g4916">
    <text
       id="text3759"
       y="11.400013"
       x="0.53339756"
       style="font-style:normal;font-weight:normal;font-size:16px;line-height:1.25;font-family:sans-serif;letter-spacing:0px;word-spacing:0px;fill:#000000;fill-opacity:1;stroke:none"
       xml:space="preserve"><tspan
         rotate="0 0 0 0 0 0 0 0 0 0 0"
         dx="0"
         style="font-style:italic;font-variant:normal;font-weight:normal;font-stretch:normal;font-size:14.66666698px;line-height:0;font-family:Consolas;-inkscape-font-specification:'Consolas Italic';letter-spacing:-2px;fill:#8a2be2;fill-opacity:1;stroke:none;stroke-opacity:1"
         y="11.400013"
         x="0.53339756"
         id="tspan3757"
         sodipodi:role="line">GAZATU.XYZ</tspan></text>
    <g
       transform="matrix(0.10139707,0,0,0.10139707,33.219199,1.7359365)"
       id="g4896">
      <path
         style="fill:#424242"
         inkscape:connector-curvature="0"
         d="m 119.47,76.7 -4.11,-7.02 10.82,-1.38 z m -92,-31.19 c -0.8,0 -1.58,-0.38 -2.07,-1.09 C 15.63,30.07 5.47,34.57 5.37,34.62 4.12,35.2 2.63,34.66 2.05,33.41 A 2.501,2.501 0 0 1 3.26,30.09 C 3.4,30.03 17.4,23.79 29.53,41.61 a 2.494,2.494 0 0 1 -2.06,3.9 z m 15.6,-5.8 c -1.24,0 -2.32,-0.92 -2.48,-2.19 C 38.44,20.58 27.91,20.26 27.46,20.25 c -1.37,-0.02 -2.49,-1.14 -2.48,-2.51 0,-1.37 1.1,-2.48 2.47,-2.49 0.25,0 15.37,0.21 18.1,21.63 0.17,1.37 -0.79,2.62 -2.17,2.8 -0.1,0.03 -0.2,0.03 -0.31,0.03 z"
         id="path4844" />
      <path
         style="fill:#bdbdbd"
         inkscape:connector-curvature="0"
         d="m 60.65,15.9 c 3.6,-3.23 8.59,-4.22 13.35,-2.63 2.04,0.67 3.83,1.67 5.34,2.98 12.64,10.99 5.82,31.45 -0.34,47.88 -0.04,0.1 -2.81,8.47 -5.79,9.12 -2.43,0.53 -5.25,-3.09 -5.25,-3.09 -0.13,-0.12 -3.13,-3.98 -3.46,-4.5 -5.35,-7.82 -8.92,-16.51 -10.64,-25.84 -0.38,-2.07 -0.56,-4.36 -0.47,-6.75 0.03,-0.92 0.1,-1.85 0.23,-2.78 0.11,-0.87 0.26,-1.74 0.45,-2.6 0.94,-4.15 2.86,-8.22 6.19,-11.43 z"
         id="path4846" />
      <path
         style="fill:#eceff1"
         inkscape:connector-curvature="0"
         d="m 99.01,18.13 c 5.36,-0.63 10.54,1.68 13.86,6.19 1.43,1.92 2.41,3.99 2.95,6.15 4.46,18.13 -14.91,32.4 -31.09,43.41 -0.1,0.07 -8,5.92 -11.14,4.59 -2.55,-1.08 -2.8,-6.2 -2.8,-6.2 -0.04,-0.19 -0.29,-5.64 -0.26,-6.32 0.15,-10.56 2.48,-20.78 6.91,-30.38 0.98,-2.13 2.29,-4.34 3.91,-6.45 0.62,-0.82 1.28,-1.62 2,-2.39 0.66,-0.72 1.35,-1.42 2.08,-2.08 3.52,-3.18 7.89,-5.65 12.99,-6.44 z"
         id="path4848" />
      <ellipse
         style="fill:#fcc21b"
         id="e"
         cx="97.660004"
         cy="83.32"
         rx="23.42"
         ry="18.780001"
         transform="rotate(-25.163,97.652,83.316)" />
      <g
         clip-path="url(#c)"
         id="g4859">
        <ellipse
           style="fill:#424242"
           cx="52.291"
           cy="116.728"
           rx="18.780001"
           ry="23.42"
           transform="rotate(-25.163)"
           id="ellipse4851" />
        <ellipse
           style="fill:#fcc21b"
           cx="43.179001"
           cy="116.041"
           rx="18.780001"
           ry="23.42"
           transform="rotate(-25.163)"
           id="ellipse4853" />
        <ellipse
           style="fill:#424242"
           cx="31.966"
           cy="116.483"
           rx="18.780001"
           ry="23.42"
           transform="rotate(-25.163)"
           id="ellipse4855" />
        <ellipse
           style="fill:#fcc21b"
           cx="21.511"
           cy="115.902"
           rx="18.780001"
           ry="23.42"
           transform="rotate(-25.163)"
           id="ellipse4857" />
      </g>
      <path
         style="fill:#424242"
         inkscape:connector-curvature="0"
         d="m 42.4,97.96 c -2.46,0 -4,-0.29 -4.17,-0.32 a 2.504,2.504 0 0 1 -1.97,-2.94 2.507,2.507 0 0 1 2.93,-1.97 c 0.16,0.03 9.9,1.74 19.9,-4.99 1.14,-0.77 2.7,-0.47 3.47,0.68 0.77,1.15 0.47,2.7 -0.68,3.47 -7.62,5.13 -15.03,6.07 -19.48,6.07 z"
         id="path4861" />
      <path
         style="fill:#424242"
         inkscape:connector-curvature="0"
         d="m 46.54,108.26 c -1.19,0 -2.24,-0.85 -2.46,-2.06 -0.24,-1.36 0.66,-2.65 2.01,-2.9 0.16,-0.03 9.85,-1.98 16.72,-11.87 a 2.495,2.495 0 0 1 3.48,-0.63 c 1.13,0.79 1.42,2.34 0.63,3.48 -8.12,11.7 -19.46,13.86 -19.94,13.94 -0.14,0.03 -0.29,0.04 -0.44,0.04 z"
         id="path4863" />
      <path
         style="fill:#424242"
         inkscape:connector-curvature="0"
         d="m 68.95,115.47 a 2.496,2.496 0 0 1 -2.43,-3.09 c 0.03,-0.14 2.25,-9.61 -0.42,-21.26 a 2.5,2.5 0 0 1 1.88,-3 2.5,2.5 0 0 1 3,1.88 c 2.96,12.89 0.51,23.14 0.41,23.57 a 2.526,2.526 0 0 1 -2.44,1.9 z m 9.29,-0.07 c -0.12,0 -0.24,-0.01 -0.36,-0.03 a 2.503,2.503 0 0 1 -2.12,-2.83 c 0.02,-0.12 1.3,-9.77 -2.51,-21.12 -0.44,-1.31 0.27,-2.73 1.58,-3.17 1.32,-0.44 2.73,0.27 3.17,1.58 4.21,12.54 2.78,22.98 2.72,23.41 a 2.521,2.521 0 0 1 -2.48,2.16 z"
         id="path4865" />
      <path
         style="fill:#ffb300"
         inkscape:connector-curvature="0"
         d="m 83.85,73.31 c -0.55,-0.75 0.63,-3.06 -0.03,-3.67 -0.68,-0.62 -2.87,0.79 -3.65,0.33 -0.79,-0.47 -0.58,-3.06 -1.44,-3.37 -0.86,-0.31 -2.36,1.81 -3.27,1.66 -0.9,-0.15 -1.62,-2.65 -2.54,-2.65 -0.91,0 -1.61,2.51 -2.52,2.67 -0.89,0.15 -2.38,-1.98 -3.26,-1.68 -0.85,0.29 -0.73,2.89 -1.56,3.33 -0.8,0.42 -2.87,-1.16 -3.62,-0.61 -0.75,0.55 0.14,3 -0.49,3.64 -0.66,0.66 -3.11,-0.23 -3.64,0.5 -0.55,0.75 1.05,2.81 0.64,3.61 -0.42,0.83 -3.02,0.75 -3.3,1.62 -0.28,0.88 1.9,2.31 1.78,3.21 -0.12,0.91 -2.6,1.72 -2.56,2.63 0.04,0.92 2.58,1.48 2.79,2.37 0.21,0.89 -1.78,2.55 -1.39,3.39 0.38,0.82 2.94,0.37 3.49,1.12 0.55,0.75 -0.63,3.06 0.03,3.67 0.68,0.62 2.87,-0.79 3.65,-0.33 0.79,0.47 0.58,3.06 1.44,3.37 0.86,0.31 2.36,-1.81 3.27,-1.66 0.9,0.15 1.62,2.65 2.54,2.65 0.91,0 1.61,-2.51 2.52,-2.67 0.89,-0.15 2.38,1.98 3.26,1.68 0.85,-0.29 0.73,-2.89 1.56,-3.33 0.8,-0.42 2.87,1.16 3.62,0.61 0.75,-0.55 -0.14,-3 0.49,-3.64 0.66,-0.66 3.11,0.23 3.64,-0.5 0.55,-0.75 -1.05,-2.81 -0.64,-3.61 0.42,-0.83 3.02,-0.75 3.3,-1.62 0.28,-0.88 -1.9,-2.31 -1.78,-3.21 0.12,-0.91 2.6,-1.72 2.56,-2.63 -0.04,-0.92 -2.58,-1.48 -2.79,-2.37 -0.21,-0.89 1.78,-2.55 1.39,-3.39 -0.38,-0.83 -2.94,-0.37 -3.49,-1.12 z"
         id="path4867" />
      <ellipse
         style="fill:#fcc21b"
         cx="43.080002"
         cy="62.91"
         rx="30.200001"
         ry="27.450001"
         transform="rotate(-14.872,43.08,62.915)"
         id="ellipse4869" />
      <path
         style="fill:#424242"
         inkscape:connector-curvature="0"
         d="m 45.39,81.01 c -2.89,0 -5.22,-1.03 -5.57,-1.19 a 2.501,2.501 0 0 1 -1.21,-3.32 2.49,2.49 0 0 1 3.31,-1.21 c 0.08,0.03 3.11,1.36 5.62,0.34 1.35,-0.55 2.35,-1.71 3.06,-3.55 a 2.5,2.5 0 0 1 3.24,-1.43 c 1.29,0.5 1.93,1.95 1.43,3.24 -1.23,3.16 -3.21,5.31 -5.88,6.39 -1.38,0.53 -2.74,0.73 -4,0.73 z m 8.42,-25.22 c 0.7,-0.27 1.42,-0.3 2.13,-0.17 1.08,0.2 2.12,0.81 2.94,1.75 0.5,0.59 0.93,1.29 1.23,2.09 0.23,0.66 0.34,1.32 0.37,1.97 0.06,1.27 -0.26,2.46 -0.89,3.4 -0.48,0.73 -1.14,1.32 -1.97,1.64 -2.41,0.9 -5.22,-0.73 -6.28,-3.68 -1.06,-2.93 0.06,-6.08 2.47,-7 z M 33.17,73.56 c -2.55,0.37 -5.07,-1.81 -5.6,-4.91 -0.52,-3.07 1.13,-5.9 3.7,-6.27 2.55,-0.39 5.07,1.81 5.58,4.9 0.53,3.08 -1.13,5.88 -3.68,6.28 z"
         id="path4871" />
    </g>
  </g>
</svg>
